<?xml version="1.0" encoding="UTF-8"?>
<svg id="Layer_1" data-name="Layer 1" xmlns="http://www.w3.org/2000/svg" xmlns:xlink="http://www.w3.org/1999/xlink" viewBox="0 0 352.81 172.97">
  <defs>
    <style>
      .cls-1 {
        clip-path: url(#clippath);
      }

      .cls-2 {
        fill: none;
      }

      .cls-2, .cls-3, .cls-4, .cls-5, .cls-6 {
        stroke-width: 0px;
      }

      .cls-7 {
        font-size: 6px;
      }

      .cls-7, .cls-8 {
        font-family: MudstoneSans-Black, 'Mudstone Sans';
        font-weight: 800;
      }

      .cls-8 {
        font-size: 11px;
      }

      .cls-4 {
        fill: #231f20;
      }

      .cls-5 {
        fill: #9868ff;
      }

      .cls-6 {
        fill: snow;
      }
    </style>
    <clipPath id="clippath">
      <rect class="cls-2" width="352.81" height="172.97"/>
    </clipPath>
  </defs>
  <rect class="cls-6" x=".76" width="352.81" height="172.97"/>
  <g class="cls-1">
    <path class="cls-5" d="m137,289c-22-66-10-144,36-197l1,1c2-1,2-5,2-4,53,51,132,65,200,44,0,2,0,5-1,7l-3,9c0,1-1,3-2,4,0,2-1,3-1,5-1,1-1,3-2,4,0,2,0,3-1,5-3,7-7,14-11,21-55,1-109-20-149-59-4-5-8-10-13-15-7-8-11-16-16-25,10,71,66,130,133,154-14,13-30,22-47,31-3-2-6-4-9-7-1-1-3-2-5-3-27-24-49-52-62-86-10-29-15-59-11-89-33,64-23,144,18,203-19,2-38,1-57-3h0Zm39-200c0,1-5,4,1,4,0-1-1-3-1-4h0Zm.37-.42h0Zm-105.37,175.42c-17-9-31-22-44-36,20-67,76-123,145-139v2c-31,16-54,40-72,69-2,3-3,6-5,9-14,30-23,62-24,95h0ZM-12,169c-6-14-11-27-13-42,0-4-1-9-2-13,31-23,67-37,105-42,34-4,68,3,99,16-2,0-3-1-5-1v1C102,77,30,113-12,169h0Zm188.44-80.68h0ZM-23,43C-19,24-12,7-3-10c71-2,143,34,179,97-1-1-1-2-2-3l-1,1C121,35,44,23-23,43h0Zm199.41,45.49h0Zm-.41-.49c-3-20-10-39-19-57-2-3-3-6-5-9-14-23-30-41-52-57-19-13-38-23-58-31,7-5,13-11,20-16l15-9,12-6c58,41,97,113,87,185,0-1,1-3,1-4-6,0-1,3-1,4h0Zm1,0c32-65,22-144-19-203,19-3,37,0,56,2,19,52,16,111-9,161-2,3-3,6-5,9-6,10-12,20-21,28l-1-1c0,1-1,3-1,4h0Zm0,1c1,0,3,1,4,1v-1c41,5,81-3,118-24,26-15,48-34,65-58,8,17,13,36,15,55-57,43-136,57-202,27h0Zm4-2l-1-1c26-12,46-33,64-57,4-6,8-11,11-17s6-13,9-19c11-26,16-53,17-81,16,11,31,22,44,36-2,3-2,7-3,11-18,47-49,87-94,111-15,7-30,14-47,17h0Z"/>
  </g>
  <g>
    <path class="cls-3" d="m138.91,83.34h-3c-1-2-1-5,0-5,5-3,12,0,10,6h-3c-2,4-1,8-1,12-7,1-3-9-3-13h0Z"/>
    <path class="cls-3" d="m151.91,96.34c-2-1-5-1-5-1-3-5,0-11-1-17,3,0,7-1,10,0,0,1,1,4,0,5s-4-2-5,1c2,0,4,1,5,2l-1,2c-1,0-3-1-4-1s-1,1-1,2c1,2,4,0,5,1s0,4,1,5c-1,0-3,1-4,1h0Z"/>
    <path class="cls-3" d="m156.91,80.34v-2h5c2,1,1,3,1,4-2,5-1,9-1,14-9,1-4-11-5-16h0Z"/>
    <path class="cls-3" d="m166.91,85.34c-1,3-1,7-1,10h-3c-1-6,1-12,1-18,8-1,6,8,8,13,1-4-2-14,5-12v18c-9,3-7-7-10-13v2h0Z"/>
    <path class="cls-3" d="m198.91,90.34c1-4,1-9,3-12,2-1,6-1,6,0,3,5,3,12,3,17,1,2-3,0-5,1,0-2-2-5-1-7-1,0-3-1-3,1v5c-1,1-2,1-3,1-2-1-1-4,0-6h0Zm6-3v-5c0,2-1,3-2,4,0,1,1,1,2,1h0Z"/>
    <path class="cls-3" d="m220.91,94.34c0,1,0,2-1,2-2,1-5,0-7-1-3-5,1-11,0-17h4c2,5-4,14,4,13v3h0Z"/>
    <path class="cls-3" d="m227.91,96.34c-2,1-2-2-4,0,0-1-1-1-2-1-1-6,1-11,0-17,3,0,7-1,10,0,0,1,1,4,0,5s-4-2-5,1c2,0,4,1,5,2-2,0-1,1-1,2-1,0-3-1-4-1s-1,1-1,2c1,2,4,0,5,1s0,4,1,5c-1,0-3,1-4,1h0Z"/>
    <path class="cls-3" d="m236.91,85.34c-2,3,0,7-1,10-2,2-4-1-3-3,0-5-1-10,1-15,1,1,4,0,5,1,2,4,3,8,2,12,3-5-2-14,6-12,1,6-3,11,0,17-2,2-6,1-7,1-3-3-2-9-3-13v2h0Z"/>
    <path class="cls-3" d="m136.71,62.53c-5.7,1.22-13.51,3.71-14.93,10.27-.83,3.84,1.33,6.81,3.65,9.63,1.18,1.44,4.44,4.11,4.48,6.11.05,1.89-3.27,2.62-5,3.2-3.71,1.25-1.69,6.46,2,5.22,5.97-2.01,12.07-5.9,7.76-12.66-1.74-2.73-7.67-7.21-6.93-10.76s6.54-4.78,9.38-5.38c3.68-.79,3.49-6.45-.41-5.62h0Z"/>
    <path class="cls-3" d="m199.89,75.71c1.3-8.53-3.89-16.87-13.37-13.62-7.93,2.72-7.96,12.83-8.26,19.73-.17,4-1,8.18,1.06,11.86s6.03,5.3,10.04,4.24,7.12-4.66,8.24-8.67c1.6-5.74-.44-7.54-5.36-9.53-3.35-1.35-6.28,3.77-2.64,5.25,2.7,1.09,3.15.83,1.88,3.98-1.34,3.32-5.67,5.16-7.14.84-1.05-3.09-.09-7.65.09-10.86.17-3,.13-8.01,2.32-10.41,1.39-1.52,4.23-2,5.83-.55,1.77,1.61,1.69,4.89,1.37,7.02-.58,3.79,5.42,4.27,5.96.73h0Z"/>
  </g>
  <g>
    <path class="cls-4" d="m76.29,49.45c1.67,3.02,4.62,5.28,8.01,6s7.23-.22,10.04-2.46c.38-.3-.16-.83-.53-.53-2.65,2.12-6.25,3-9.57,2.21-3.11-.73-5.77-2.81-7.31-5.59-.23-.42-.88-.04-.65.38h0Z"/>
    <path class="cls-4" d="m79.38,52.94c-1.56,1.19-2.75,2.78-3.34,4.66-.54,1.72-.32,3.68,1.5,4.48,3.92,1.72,6.87-3.33,7.82-6.36.15-.47-.56-.64-.72-.2-.81,2.21-1.68,4.75-.82,7.09.64,1.73,2.67,3.8,4.69,3.03,1.86-.71,3.07-3.14,3.68-4.9.72-2.11.8-4.39.25-6.54-.12-.47-.84-.27-.72.2.85,3.35.05,7.74-2.71,10.06-1.96,1.66-4.21-.76-4.65-2.68-.47-2.04.32-4.16,1.01-6.05l-.72-.2c-.79,2.53-3.09,6.95-6.42,6.01-1.86-.52-1.92-2.41-1.38-3.97s1.59-2.97,2.92-3.98c.38-.29,0-.94-.38-.65h0Z"/>
    <path class="cls-4" d="m76.97,56.5c.32.26.66.52,1.07.61.39.08.79.04,1.16-.11.74-.29,1.33-.88,1.72-1.57.1-.18.19-.36.26-.55.09-.22.18-.45.11-.68-.06-.2-.22-.35-.37-.49s-.3-.27-.48-.35c-.87-.41-1.57.42-2.07,1.02-.29.34-.58.69-.84,1.05-.13.19-.27.38-.29.61s.07.47.24.63c.69.68,1.65.04,2.21-.47.3-.28.57-.6.8-.94s.53-.85.18-1.23c-.13-.14-.34-.22-.52-.28-.24-.08-.49-.08-.72.03-.35.17-.62.57-.87.87-.32.39-.61.79-.88,1.21-.13.21-.27.45-.09.69.16.21.42.21.65.14.94-.27,1.28-1.23,1.94-1.85.35-.33-.18-.86-.53-.53-.33.31-.56.7-.84,1.05-.12.15-.25.29-.4.41-.07.06-.16.11-.24.15-.04.02-.08.03-.12.04-.03.01-.07,0-.03.01l.17.1-.03-.02.1.17v-.03c-.01.07-.01.13-.01.2-.02.08.05-.08.06-.09.04-.06.07-.11.11-.17.07-.11.15-.22.23-.33.16-.23.33-.45.51-.67.15-.19.31-.37.48-.55.05-.05.11-.13.18-.14.05,0,.33.12.34.11l-.03-.03c-.01-.07-.02-.09-.03-.04-.02,0-.06.11-.07.13-.06.1-.12.19-.18.29-.14.21-.31.41-.49.59-.15.15-.31.3-.48.42-.18.13-.41.3-.64.28-.06,0-.16-.01-.2-.07s0-.09.03-.15c.14-.22.31-.42.47-.63.34-.41.67-.85,1.08-1.19.13-.11.29-.22.47-.17s.34.22.46.36l.04.04c.05.07.06.05.02-.04,0,0-.05.17-.06.18-.04.1-.08.2-.13.3-.11.22-.23.43-.38.62-.3.38-.7.73-1.17.87-.22.07-.46.09-.69.03-.25-.07-.46-.24-.66-.4-.16-.13-.38-.15-.53,0-.13.13-.16.4,0,.53h0Z"/>
    <path class="cls-4" d="m89.53,64.01c-.32-.27-.52-.63-.6-1.05-.08-.44.05-.86.27-1.24.43-.76,1.23-1.54,2.18-1.19.38.14.59-.37.36-.63-.49-.55-1.28-.37-1.88-.14-.65.26-1.09.75-1.42,1.35s-.5,1.26-.39,1.94c.1.59.44,1.12.95,1.43.17.1.41.04.51-.13.5-.85,1.2-1.56,1.77-2.36.14-.19.27-.39.38-.59s.29-.47.31-.72-.11-.49-.33-.62c-.25-.15-.57-.12-.84-.05-.51.12-.98.41-1.39.73-.39.31-.73.69-.94,1.14s-.37,1.07-.21,1.58c.09.27.34.43.62.35.23-.07.45-.27.62-.43.38-.35.69-.78.96-1.22.14-.23.27-.47.4-.71.06-.12.13-.24.19-.36.02-.04.04-.08.06-.12.02-.04.04-.08.07-.12.06-.07.04-.08-.04-.03h-.2.03c-.07-.05-.15-.11-.22-.17l.02.03.06-.45c-.19.17-.5.17-.73.25-.29.09-.54.25-.75.47-.45.47-.62,1.11-.76,1.73-.1.42.45.64.68.29.36-.54.8-1.02,1.29-1.43.15-.13.13-.4,0-.53-.15-.15-.37-.13-.53,0-.55.46-1.02.99-1.41,1.58l.68.29c.12-.52.24-1.12.66-1.49.19-.16.41-.21.64-.27.28-.07.53-.17.74-.36.12-.11.14-.32.06-.45-.11-.19-.31-.26-.52-.19s-.3.24-.39.41c-.18.33-.35.66-.54.99-.17.3-.35.6-.57.88-.11.14-.23.27-.35.39-.1.1-.25.27-.39.31h.2-.06c.06.02.11.06.17.09.02.03.02.02,0-.03,0-.05,0-.1,0-.15,0-.08,0-.16.01-.25.02-.17.08-.34.15-.5.14-.3.34-.55.58-.78s.52-.42.82-.57c.15-.08.31-.14.48-.18.05-.01.19,0,.23-.03.04.02.04,0,0-.04,0-.05,0-.06-.02-.01-.05.04-.08.17-.11.22-.04.08-.09.17-.14.25-.08.14-.17.28-.27.41-.19.27-.39.52-.59.77-.44.54-.89,1.08-1.24,1.68l.51-.13c-.8-.48-.71-1.56-.33-2.28.21-.41.49-.81.9-1.03.32-.17.96-.43,1.26-.11l.36-.63c-1.26-.46-2.43.49-3.02,1.54-.31.54-.45,1.13-.35,1.76.09.55.38,1.07.8,1.44.36.31.89-.21.53-.53h0Z"/>
    <path class="cls-4" d="m73.07,64.91c1.14,2.95,3.81,4.72,6.68,5.77,1.53.56,3.14.96,4.77.63,1.47-.3,2.77-1.12,3.85-2.14.35-.33-.18-.86-.53-.53-.96.91-2.1,1.64-3.41,1.93-1.52.33-3.05-.08-4.48-.61-2.59-.96-5.11-2.58-6.15-5.25-.17-.44-.9-.25-.72.2h0Z"/>
    <path class="cls-4" d="m80.33,70.88c-.48,2.1.02,5.05,2.16,6.1.97.48,2.15.48,3.03-.2s1.37-1.76,1.53-2.82c.18-1.2-.04-2.44-.69-3.48-.25-.41-.9-.03-.65.38.93,1.49.89,3.6-.27,4.96-.62.72-1.52.93-2.41.58-.82-.32-1.39-1.07-1.72-1.86-.45-1.09-.52-2.32-.26-3.47.11-.47-.62-.67-.72-.2h0Z"/>
    <path class="cls-4" d="m83.25,71.07c-.28.74-.3,1.58-.07,2.34.06.19.26.32.46.26s.32-.26.26-.46c-.03-.09-.05-.17-.07-.26,0-.04-.02-.09-.03-.13,0-.01-.02-.14-.01-.07-.02-.17-.03-.34-.02-.52,0-.08,0-.17.02-.25,0-.05,0-.05,0-.01,0-.03,0-.05.01-.08,0-.04.01-.08.02-.11.04-.18.09-.35.15-.51.07-.18-.08-.42-.26-.46-.21-.05-.39.07-.46.26h0Z"/>
  </g>
  <g>
    <path class="cls-4" d="m184.85,21.57c2.31,1.45,5.25,1.83,7.83.88,2.37-.87,4.24-2.74,5.2-5.05.14-.33-.4-.47-.54-.15-.9,2.18-2.75,3.96-4.99,4.73-2.4.82-5.08.46-7.22-.89-.3-.19-.58.29-.28.48h0Z"/>
    <path class="cls-4" d="m188.11,22.74c-.62,1.4-.83,2.99-.44,4.49.3,1.19,1.13,2.22,2.46,2.13,3.24-.21,3.35-4.64,2.88-6.96-.07-.36-.59-.2-.54.15.24,1.56.53,3.24,1.59,4.49.93,1.09,3.04,2,4.31.94,1.16-.96,1.11-3.12.92-4.46-.25-1.74-1.03-3.36-2.23-4.65-.25-.26-.64.13-.39.39,1,1.07,1.68,2.38,1.98,3.81.15.71.2,1.44.15,2.16s-.15,1.55-.59,2.12c-.53.68-1.55.57-2.28.32s-1.34-.76-1.76-1.41c-.74-1.14-.96-2.54-1.16-3.86l-.54.15c.39,1.93.46,5.73-2.11,6.22-1.3.25-1.98-.82-2.2-1.94-.26-1.28-.08-2.62.44-3.81.14-.32-.34-.61-.48-.28h0Z"/>
    <path class="cls-4" d="m187.82,25.92c.33.06.66.11.98-.01.25-.09.48-.25.65-.46.38-.46.55-1.06.56-1.66,0-.17-.01-.33-.04-.5s-.05-.32-.18-.44c-.11-.1-.27-.14-.41-.18-.15-.04-.31-.07-.47-.05-.71.07-.85.89-.96,1.45-.07.34-.13.67-.17,1.02-.03.32.07.63.4.74.3.11.65-.03.86-.26s.35-.55.45-.86.16-.62.18-.93c.02-.29.02-.66-.3-.79-.26-.1-.66,0-.85.19-.22.22-.26.6-.31.89-.07.39-.12.78-.15,1.17-.01.19-.02.4.19.48.18.07.35-.02.47-.14.52-.51.39-1.27.6-1.9.11-.34-.43-.49-.54-.15s-.11.69-.18,1.03c-.02.13-.06.27-.11.39-.03.06-.06.12-.1.18-.02.02-.04.05-.06.07-.02.02-.04.02-.02.02h.15-.03s.08.04.12.07l-.02-.02.07.12c.02.06,0-.08,0-.08,0-.05,0-.11.01-.16,0-.11.02-.21.03-.32.02-.22.06-.44.1-.66.03-.17.06-.37.13-.54.02-.05.03-.06.08-.09.02,0,.24-.03.24-.03,0,.01-.08-.04-.07-.04,0,0,0,.06,0,.07,0,.1,0,.2-.01.29-.02.19-.05.37-.1.55s-.11.36-.19.52c-.07.14-.15.31-.3.38-.07.03-.16.05-.18-.02s.01-.21.02-.28c.02-.12.04-.23.06-.35.07-.39.13-.81.28-1.18.04-.1.1-.23.21-.27.15-.06.33.02.47.06.02,0,.08.04.04,0,0,0,.02.1.01.09.02.09.02.18.03.28,0,.19,0,.39-.03.58-.06.35-.19.69-.44.95-.11.11-.23.21-.38.25-.21.06-.42.03-.63,0-.15-.03-.3.04-.34.19-.04.13.05.32.19.34h0Z"/>
    <path class="cls-4" d="m198.69,26.31c-.3-.06-.56-.22-.75-.46-.22-.27-.28-.6-.28-.94.01-.65.27-1.42,1-1.53.29-.05.23-.46,0-.54-.52-.18-.98.23-1.29.6-.32.4-.42.88-.42,1.38,0,.94.55,1.94,1.58,1.98.15,0,.27-.13.28-.28.02-.8.26-1.58.33-2.37.03-.32.1-.83-.17-1.07-.31-.27-.7-.03-.94.21-.51.51-.84,1.34-.78,2.05.03.35.14.69.36.97.11.14.27.23.46.17.2-.07.28-.3.35-.48.15-.38.2-.8.22-1.21,0-.2,0-.4,0-.6,0-.1,0-.2,0-.3,0-.05,0-.1,0-.15,0-.06.04-.19-.04-.1l-.12.07h.02c-.07-.02-.14-.03-.21-.04h.02c-.04-.09-.09-.2-.13-.3-.06.16-.24.27-.36.39-.16.16-.27.34-.34.55-.15.48-.02.99.11,1.46.09.31.52.23.55-.07.04-.48.16-.95.33-1.39.05-.14-.06-.31-.19-.34-.16-.04-.29.05-.34.19-.19.5-.3,1.01-.35,1.54l.55-.07c-.11-.39-.26-.86-.08-1.25.08-.16.21-.27.34-.39.14-.14.25-.28.32-.47.04-.12-.03-.25-.13-.31-.3-.18-.5.13-.51.39-.01.29,0,.58,0,.86,0,.27,0,.54-.05.81-.02.13-.05.26-.09.39-.03.11-.07.27-.15.36l.12-.07-.04.02h.15s-.04-.07-.05-.1c-.03-.05-.06-.1-.08-.16-.04-.1-.07-.21-.08-.32-.03-.23,0-.47.06-.7.07-.24.17-.46.3-.68.06-.1.13-.2.21-.28.04-.05.09-.1.14-.14.03-.02.09-.04.1-.07.03,0,.03-.01-.01-.03-.03-.04-.04-.04-.03,0-.02.02,0,.15,0,.19,0,.14,0,.28-.01.41-.02.26-.06.52-.11.78-.1.55-.21,1.1-.23,1.66l.28-.28c-.69-.03-1.01-.76-1.03-1.36,0-.34.02-.7.22-.99.15-.23.47-.63.79-.52v-.54c-.98.15-1.39,1.19-1.41,2.07s.53,1.74,1.44,1.94c.35.08.5-.46.15-.54h0Z"/>
    <path class="cls-4" d="m188.29,32.8c1.91,1.59,4.45,1.72,6.8,1.3,1.1-.19,2.17-.55,3.02-1.29s1.35-1.7,1.67-2.72c.11-.34-.43-.49-.54-.15-.3.94-.78,1.82-1.53,2.48s-1.77.97-2.77,1.15c-2.14.38-4.52.29-6.26-1.16-.27-.23-.67.16-.39.39h0Z"/>
    <path class="cls-4" d="m195.17,34.1c.44,1.54,1.82,3.26,3.58,3.19.78-.03,1.55-.44,1.89-1.17s.29-1.68.01-2.44c-.31-.85-.91-1.57-1.7-2.02-.31-.17-.59.31-.28.48,1.14.64,1.87,2.02,1.6,3.33-.14.69-.67,1.16-1.37,1.24s-1.37-.24-1.88-.68c-.64-.55-1.09-1.28-1.32-2.09-.1-.34-.64-.2-.54.15h0Z"/>
    <path class="cls-4" d="m197.13,33.17c.08.58.37,1.14.79,1.54.1.1.29.11.39,0s.11-.29,0-.39c-.05-.04-.09-.09-.13-.14-.02-.03-.05-.05-.07-.08,0-.01-.02-.02-.03-.04.02.02.02.02,0,0-.08-.11-.15-.22-.21-.34-.01-.03-.03-.05-.04-.08,0-.01-.01-.03-.02-.04-.01-.03.02.04,0,0-.02-.06-.05-.12-.06-.18-.04-.13-.07-.26-.09-.39-.02-.14-.21-.24-.34-.19-.16.05-.22.19-.19.34h0Z"/>
  </g>
  <g>
    <path class="cls-4" d="m260.41,94.78c2.25,1.37,5.1,1.67,7.56.69,2.21-.88,3.94-2.67,4.81-4.87.13-.32-.39-.46-.51-.14-.82,2.07-2.51,3.78-4.6,4.57-2.3.86-4.9.57-6.98-.7-.29-.18-.56.28-.27.46h0Z"/>
    <path class="cls-4" d="m263.55,95.85c-.57,1.35-.74,2.86-.36,4.29.31,1.13,1.11,2.1,2.38,2,3.09-.25,3.13-4.48,2.64-6.68-.07-.34-.57-.19-.51.14.25,1.49.56,3.09,1.59,4.26.9,1.02,2.93,1.86,4.13.84,1.09-.94,1.01-2.99.81-4.27-.26-1.66-1.03-3.2-2.2-4.4-.24-.25-.61.13-.38.38.97,1,1.64,2.24,1.95,3.6.15.67.22,1.37.18,2.06s-.11,1.48-.53,2.03c-.49.66-1.47.57-2.17.35s-1.29-.7-1.7-1.31c-.73-1.07-.96-2.41-1.17-3.66l-.51.14c.4,1.84.54,5.46-1.91,5.98-1.23.26-1.9-.75-2.14-1.81-.27-1.22-.12-2.5.36-3.64.13-.31-.33-.58-.46-.27h0Z"/>
    <path class="cls-4" d="m263.32,98.89c.31.05.63.09.94-.02.24-.09.45-.25.62-.45.36-.45.52-1.02.51-1.59,0-.16-.02-.32-.04-.48s-.06-.31-.18-.42c-.11-.09-.26-.13-.39-.16-.14-.04-.3-.06-.45-.04-.67.07-.8.86-.9,1.4-.06.32-.12.65-.15.97-.03.31.07.6.39.7.68.22,1.07-.56,1.23-1.08.09-.29.14-.59.16-.89.01-.28.02-.63-.29-.75-.25-.09-.63,0-.81.19-.21.21-.24.58-.28.86-.06.37-.11.75-.13,1.12,0,.18-.01.38.18.46.17.07.33-.02.45-.14.49-.5.36-1.21.54-1.82.1-.33-.41-.47-.51-.14s-.1.66-.15.98c-.02.13-.05.25-.1.37-.03.06-.06.12-.1.17-.02.02-.04.04-.06.07-.01.02-.04.02-.02.02h.14-.02s.08.04.12.06l-.02-.02.07.12c.02.06,0-.07,0-.08,0-.05,0-.1,0-.15,0-.1.01-.2.02-.3.02-.21.05-.42.09-.63.03-.17.05-.36.11-.51.02-.05.03-.06.07-.09.02-.01.22-.04.22-.04,0,0-.08-.04-.07-.04,0,0,0,.06,0,.06,0,.09,0,.19,0,.28-.01.18-.04.35-.09.53s-.1.34-.17.5c-.06.13-.14.3-.28.36-.06.03-.15.06-.18,0-.03-.06.01-.21.02-.27.01-.11.03-.22.05-.34.06-.38.11-.77.25-1.13.04-.1.09-.22.19-.26.14-.06.32,0,.45.05h.04c.05.03.05.03,0,0,0,.02.01.07.02.09.02.09.03.17.03.26.01.18,0,.37-.02.55-.05.33-.17.67-.4.91-.1.11-.22.2-.36.25-.2.07-.41.04-.6,0-.14-.02-.29.04-.33.19-.03.13.04.3.19.33h0Z"/>
    <path class="cls-4" d="m273.71,99.09c-.29-.06-.54-.2-.73-.42-.21-.25-.28-.57-.28-.89,0-.62.23-1.36.93-1.48.28-.05.23-.44,0-.51-.5-.16-.93.23-1.22.59-.3.38-.39.84-.39,1.33.01.89.55,1.84,1.54,1.87.14,0,.26-.12.27-.27.01-.76.22-1.49.27-2.24.02-.31.09-.82-.17-1.05-.29-.25-.65-.03-.88.19-.48.48-.79,1.26-.74,1.94.03.34.13.67.34.94.11.14.25.25.44.19s.26-.25.33-.42c.15-.37.2-.78.21-1.18,0-.19,0-.39,0-.58,0-.1,0-.19,0-.29,0-.05,0-.1,0-.14,0-.05.04-.19-.04-.1l-.12.07h.02c-.07-.02-.14-.03-.2-.04h.02c-.04-.09-.08-.19-.12-.29-.05.16-.22.26-.33.38-.15.15-.25.33-.32.53-.14.46,0,.94.13,1.39.09.29.5.23.52-.07.03-.46.13-.9.29-1.34.12-.32-.39-.46-.51-.14-.18.48-.28.97-.31,1.48l.52-.07c-.11-.37-.27-.82-.09-1.2.07-.15.2-.25.31-.37.13-.13.24-.27.3-.45.04-.11-.03-.24-.12-.3-.28-.16-.48.12-.48.37,0,.27.01.54.02.81s0,.53-.04.79c-.02.13-.05.26-.08.39-.03.1-.06.25-.13.33l.12-.07-.04.02h.14s-.04-.06-.05-.09c-.03-.05-.06-.1-.08-.15-.04-.1-.07-.2-.09-.3-.04-.22-.01-.45.05-.67.06-.23.15-.45.27-.65.06-.1.12-.19.2-.27.04-.05.09-.09.13-.13.02-.02.08-.04.1-.07.03,0,.03,0,0-.01-.02,0-.03-.02-.04-.03,0,0,.01.16.01.18,0,.13,0,.26,0,.39-.01.25-.05.5-.09.75-.08.53-.18,1.05-.19,1.59l.27-.27c-.66-.02-.98-.71-1-1.28-.01-.32.01-.67.19-.95.14-.22.44-.61.74-.51v-.51c-.93.16-1.31,1.15-1.32,1.99s.52,1.65,1.4,1.83c.33.07.48-.45.14-.51h0Z"/>
    <path class="cls-4" d="m263.88,105.44c1.85,1.49,4.27,1.58,6.51,1.14,1.04-.2,2.06-.55,2.86-1.28s1.26-1.64,1.56-2.62c.1-.33-.41-.47-.51-.14-.27.9-.72,1.75-1.42,2.39s-1.68.96-2.62,1.14c-2.03.39-4.31.35-5.99-1-.26-.21-.64.16-.38.38h0Z"/>
    <path class="cls-4" d="m270.46,106.57c.45,1.48,1.83,3.14,3.54,2.99.74-.06,1.44-.47,1.73-1.17s.23-1.6-.05-2.32c-.32-.79-.88-1.46-1.64-1.87-.3-.16-.57.3-.27.46,1.08.58,1.8,1.87,1.59,3.1-.11.68-.58,1.14-1.26,1.25s-1.35-.2-1.86-.63c-.6-.51-1.04-1.2-1.27-1.95-.1-.33-.61-.19-.51.14h0Z"/>
    <path class="cls-4" d="m272.32,105.66c.09.55.37,1.08.78,1.46.1.09.28.11.38,0s.11-.27,0-.38c-.04-.04-.09-.08-.13-.13-.02-.02-.04-.05-.06-.07,0-.01-.02-.02-.03-.03,0,0-.04-.05-.02-.02.02.03,0-.01-.01-.02-.01-.01-.02-.03-.03-.04-.02-.02-.03-.05-.05-.07-.03-.05-.07-.11-.1-.17-.01-.03-.03-.05-.04-.08,0-.02-.02-.03-.02-.05,0,0-.02-.05,0-.02s0-.01,0-.02c0-.02-.01-.03-.02-.05-.01-.03-.02-.05-.03-.08-.04-.12-.07-.25-.09-.38-.02-.14-.2-.23-.33-.19-.15.05-.21.18-.19.33h0Z"/>
  </g>
  <g>
    <path class="cls-4" d="m157.7,113.37c1.6.97,3.62,1.18,5.36.49,1.57-.62,2.8-1.89,3.41-3.46.09-.23-.28-.32-.36-.1-.58,1.47-1.78,2.68-3.27,3.24-1.63.61-3.48.4-4.96-.5-.21-.13-.4.2-.19.33h0Z"/>
    <path class="cls-4" d="m159.93,114.12c-.41.96-.53,2.03-.25,3.05.22.8.78,1.49,1.69,1.42,2.19-.18,2.22-3.18,1.88-4.74-.05-.24-.4-.13-.36.1.18,1.05.4,2.19,1.13,3.02.64.73,2.08,1.32,2.93.59.78-.66.72-2.12.57-3.03-.18-1.18-.73-2.27-1.56-3.12-.17-.17-.44.09-.27.27.69.71,1.16,1.59,1.38,2.55.11.48.15.97.13,1.46s-.08,1.05-.38,1.44c-.35.47-1.04.41-1.54.25s-.91-.5-1.21-.93c-.52-.76-.68-1.71-.83-2.6l-.36.1c.29,1.3.38,3.87-1.36,4.24-.88.19-1.35-.53-1.52-1.29-.19-.86-.09-1.77.26-2.59.09-.22-.23-.41-.33-.19h0Z"/>
    <path class="cls-4" d="m159.77,116.28c.22.03.45.07.67-.02.17-.07.32-.18.44-.32.26-.32.37-.73.36-1.13,0-.11-.01-.23-.03-.34s-.04-.22-.13-.3c-.07-.07-.18-.09-.28-.12-.1-.03-.21-.04-.32-.03-.48.05-.57.61-.64.99-.04.23-.08.46-.1.69-.02.22.05.43.27.5.48.16.76-.4.88-.77.06-.2.1-.42.11-.63.01-.2.01-.45-.21-.53-.18-.07-.44,0-.58.13-.15.15-.17.41-.2.61-.05.26-.08.53-.09.8,0,.13,0,.27.13.33.12.05.23-.01.32-.1.35-.35.25-.86.39-1.29.07-.23-.29-.33-.36-.1s-.07.47-.11.7c-.02.09-.04.18-.07.26-.02.04-.04.08-.07.12-.01.02-.03.03-.04.05,0,.01-.03.02-.01.01h.1-.02s.06.03.08.05h-.01s.03.04.05.07c.01.04,0-.05,0-.06,0-.04,0-.07,0-.11,0-.07,0-.14.02-.21.01-.15.03-.3.06-.45.02-.12.04-.25.08-.36.01-.03.02-.04.05-.06.01,0,.16-.03.16-.03,0,0-.05-.03-.05-.03,0,0,0,.05,0,.04,0,.07,0,.13,0,.2,0,.13-.03.25-.06.37s-.07.24-.12.36c-.04.1-.1.21-.2.26-.04.02-.11.04-.13,0-.02-.04,0-.15.01-.19,0-.08.02-.16.03-.24.04-.27.08-.55.18-.8.03-.07.06-.16.13-.19.1-.04.22,0,.32.03h.03s.04.02,0,0c0,.01,0,.05.01.06.01.06.02.12.02.19,0,.13,0,.26-.02.39-.04.23-.12.47-.29.65-.07.08-.15.14-.25.18-.14.05-.29.03-.43,0-.1-.02-.2.03-.23.13-.02.09.03.22.13.23h0Z"/>
    <path class="cls-4" d="m167.14,116.42c-.2-.04-.38-.14-.51-.3-.15-.18-.2-.41-.2-.63,0-.44.16-.97.66-1.05.2-.03.16-.31,0-.36-.36-.11-.66.16-.86.42-.22.27-.28.6-.27.94.01.63.39,1.31,1.09,1.33.1,0,.19-.09.19-.19,0-.54.15-1.06.19-1.59.02-.22.07-.58-.12-.74-.2-.18-.46-.02-.62.13-.34.34-.56.9-.52,1.38.02.24.09.48.24.67.08.1.18.17.31.13s.19-.18.24-.3c.11-.27.14-.56.15-.84,0-.14,0-.27,0-.41,0-.07,0-.14,0-.21,0-.03,0-.07,0-.1,0-.04.03-.14-.03-.07l-.08.05h.02s-.1-.02-.15-.03h.02c-.03-.06-.06-.13-.09-.2-.04.11-.16.19-.24.27-.1.11-.18.23-.22.38-.1.33,0,.67.09.99.06.21.36.16.37-.05.02-.33.09-.64.21-.95.08-.23-.28-.33-.36-.1-.12.34-.2.69-.22,1.05l.37-.05c-.08-.27-.19-.58-.07-.85.05-.11.14-.18.22-.26.09-.09.17-.19.21-.32.03-.08-.02-.17-.09-.21-.2-.12-.34.08-.34.26,0,.19,0,.38.01.58s0,.38-.03.56c-.01.09-.03.18-.06.27-.02.07-.04.18-.09.23l.08-.05h-.03s.07.01.1.01c.02,0-.03-.05-.04-.06-.02-.03-.04-.07-.06-.1-.03-.07-.05-.14-.06-.22-.03-.16,0-.32.03-.47.04-.16.11-.32.19-.46.04-.07.09-.14.14-.19.03-.03.06-.07.1-.09.02-.01.06-.03.07-.05.02,0,.02,0,0-.01-.01,0-.02-.01-.03-.02,0,0,0,.11,0,.13,0,.09,0,.19,0,.28-.01.18-.03.35-.06.53-.06.37-.13.75-.14,1.13l.19-.19c-.47-.01-.7-.5-.71-.91,0-.23,0-.48.14-.67.1-.15.31-.43.53-.37v-.36c-.66.11-.93.82-.93,1.41s.37,1.17.99,1.3c.24.05.34-.32.1-.36h0Z"/>
    <path class="cls-4" d="m160.16,120.93c1.31,1.06,3.03,1.12,4.62.81.74-.14,1.46-.39,2.03-.91s.89-1.16,1.1-1.86c.07-.23-.29-.33-.36-.1-.19.64-.51,1.24-1.01,1.69s-1.19.68-1.86.81c-1.44.28-3.06.25-4.25-.71-.19-.15-.46.11-.27.27h0Z"/>
    <path class="cls-4" d="m164.83,121.73c.32,1.05,1.3,2.23,2.51,2.12.53-.05,1.02-.33,1.23-.83s.16-1.14-.04-1.65c-.22-.56-.63-1.04-1.16-1.32-.21-.11-.4.21-.19.33.77.41,1.28,1.32,1.13,2.2-.08.48-.41.81-.89.89s-.96-.14-1.32-.45c-.43-.36-.74-.85-.9-1.39-.07-.23-.43-.13-.36.1h0Z"/>
    <path class="cls-4" d="m166.16,121.08c.06.39.26.77.55,1.04.07.07.2.08.27,0s.08-.19,0-.27c-.03-.03-.06-.06-.09-.09-.02-.02-.03-.03-.05-.05,0,0-.01-.02-.02-.02,0,0-.03-.04-.01-.02.01.02,0,0,0-.01,0-.01-.01-.02-.02-.03-.01-.02-.02-.03-.03-.05-.02-.04-.05-.08-.07-.12,0-.02-.02-.04-.03-.05,0-.01-.01-.02-.02-.03,0,0-.02-.03,0-.01s0,0,0-.01c0-.01,0-.02-.01-.04,0-.02-.01-.04-.02-.06-.03-.09-.05-.18-.06-.27-.02-.1-.14-.16-.23-.13-.11.03-.15.13-.13.23h0Z"/>
  </g>
  <g>
    <path class="cls-4" d="m288.11,9.5c.57,1.68,1.82,3.08,3.45,3.79,1.77.77,3.83.64,5.52-.28.22-.12.02-.46-.2-.34-1.6.87-3.58.99-5.25.23-1.48-.67-2.63-1.96-3.16-3.5-.08-.24-.46-.14-.38.1h0Z"/>
    <path class="cls-4" d="m289.36,11.62c-1.31.67-3.67,3.21-1.78,4.52s3.87-1.06,4.63-2.53c.12-.22-.21-.42-.34-.2-.63,1.08-1.32,2.32-1.08,3.62.17.94,1.02,2.17,2.11,1.97s1.9-1.34,2.38-2.21c.55-1.01.81-2.16.72-3.32-.02-.25-.41-.25-.39,0,.13,1.82-.66,3.87-2.23,4.9-.57.37-1.11.29-1.58-.2-.39-.4-.63-.94-.67-1.5-.08-1.11.53-2.14,1.07-3.07l-.34-.2c-.64,1.24-2.26,3.35-3.9,2.51-.93-.48-.7-1.52-.25-2.27s1.08-1.3,1.84-1.69c.22-.12.03-.45-.2-.34h0Z"/>
    <path class="cls-4" d="m287.84,13.24c.14.16.3.31.5.4.19.08.4.08.61.04.4-.08.77-.35,1.02-.66.13-.16.34-.4.29-.62-.04-.18-.21-.38-.36-.49-.41-.3-.88.11-1.19.37-.17.14-.35.29-.51.45s-.28.38-.14.6c.26.43.82.22,1.16.02.18-.11.35-.24.5-.39s.36-.35.29-.58c-.06-.2-.36-.35-.56-.34-.23.01-.42.22-.59.36-.2.16-.38.34-.56.53-.09.09-.21.19-.17.34.03.12.14.19.26.19.54.01.83-.51,1.23-.77.21-.14.01-.48-.2-.34-.2.13-.36.3-.53.46-.07.07-.15.13-.24.18-.05.03-.09.05-.14.06-.02,0-.04.01-.07.01-.01,0-.02,0-.03,0-.04,0-.02,0,.05.03l.05.09v-.02s0,.07,0,.1v-.02s-.03.06-.04.09c.18-.22.4-.42.61-.61.1-.08.19-.17.3-.24.04-.03.07-.05.12-.05.02,0,.15.08.15.08v-.05s-.03.02-.04.04c-.01.02-.03.03-.04.05-.04.05-.08.09-.13.14-.09.09-.19.17-.29.24-.16.11-.44.31-.65.25-.03,0-.08-.02-.09-.05-.02-.03,0-.03.02-.06.09-.1.2-.19.3-.28.21-.18.43-.38.67-.52.08-.04.17-.09.26-.06.1.04.16.16.22.24.04.05,0,.03.01.01,0,.02-.02.04-.03.06-.03.06-.07.12-.11.17-.07.1-.15.19-.24.27-.19.17-.43.31-.69.35-.31.04-.49-.13-.68-.34-.17-.19-.44.09-.28.28h0Z"/>
    <path class="cls-4" d="m293.58,18.22c-.3-.37-.21-.86.07-1.2s.77-.67,1.21-.41c.17.1.37-.1.27-.27-.2-.34-.62-.32-.96-.26-.36.07-.64.3-.87.58-.21.26-.36.58-.37.92,0,.31.11.64.35.85.07.07.2.08.28,0,.34-.39.76-.69,1.13-1.05.09-.09.18-.18.26-.27.09-.1.21-.23.24-.37.03-.15-.05-.3-.17-.37-.12-.07-.26-.07-.39-.06-.53.04-1.09.35-1.39.79-.14.21-.27.52-.22.78.03.14.15.23.29.21.12-.02.25-.1.35-.16.23-.15.43-.34.61-.55.09-.11.18-.22.27-.33.04-.05.08-.1.12-.16.02-.03.04-.05.06-.08.01-.02.03-.03.04-.05.04-.04.02-.04-.05,0l-.1-.03h.01s-.06-.07-.09-.11v.02c.03-.07.06-.15.09-.22-.12.07-.27.05-.4.07-.16.02-.3.07-.43.16-.28.2-.43.5-.56.81-.04.09-.03.19.05.25.08.06.19.06.26-.02.24-.25.5-.45.8-.62.22-.13.02-.46-.2-.34-.32.19-.62.42-.88.68l.31.24c.11-.26.22-.56.47-.71s.53-.05.78-.2c.07-.04.11-.14.09-.22-.03-.12-.15-.19-.28-.16-.1.02-.15.1-.21.17-.13.15-.25.31-.37.47s-.25.29-.39.42c-.06.06-.13.11-.2.16-.04.03-.08.05-.12.07-.02.01-.05.02-.07.04-.03.02-.02,0,0,0l.09.05c.02.07.03.07.03.02,0-.02,0-.05,0-.07,0-.04.01-.08.03-.11.02-.08.06-.16.1-.23.09-.15.21-.27.35-.36.15-.1.32-.19.49-.24.09-.03.18-.05.28-.06.04,0,.08,0,.11,0,.02,0,.06.03.03-.02,0-.03,0-.03-.02,0-.01.02-.03.04-.04.06-.02.03-.05.06-.07.09-.06.07-.12.14-.18.2-.13.13-.26.25-.4.37-.28.24-.56.48-.8.75h.28c-.37-.32-.25-.85.01-1.2.14-.19.33-.39.56-.46.17-.05.55-.15.66.04l.27-.27c-.61-.36-1.3,0-1.71.5-.21.25-.35.54-.35.87,0,.31.11.61.3.85.07.08.21.07.28,0,.08-.08.07-.19,0-.28h0Z"/>
    <path class="cls-4" d="m285.04,17.23c.32,1.62,1.57,2.79,2.95,3.58.7.4,1.46.74,2.28.74s1.58-.31,2.25-.74c.21-.14.01-.48-.2-.34-.61.4-1.31.69-2.05.69-.79,0-1.52-.35-2.19-.75-1.25-.74-2.37-1.81-2.66-3.29-.05-.25-.43-.14-.38.1h0Z"/>
    <path class="cls-4" d="m288.22,20.97c-.45,1.06-.41,2.63.62,3.35.47.33,1.09.4,1.59.1s.82-.78.99-1.3c.2-.58.19-1.24-.04-1.81-.09-.23-.47-.13-.38.1.34.85.14,1.89-.55,2.51-.37.33-.86.39-1.29.14s-.67-.7-.77-1.17c-.13-.61-.04-1.25.2-1.82.04-.1-.04-.21-.14-.24-.11-.03-.2.04-.24.14h0Z"/>
    <path class="cls-4" d="m289.73,21.29c-.21.36-.31.78-.26,1.2.01.1.08.2.2.2.1,0,.21-.09.2-.2-.01-.09-.02-.19-.01-.28,0-.04,0-.09.01-.13,0-.02,0-.02,0,0,0-.01,0-.02,0-.04,0-.02,0-.04.01-.06.02-.09.04-.18.08-.26,0-.01,0-.02.01-.03,0,.02,0,.02,0,0,0-.02.02-.03.02-.05.02-.04.05-.09.07-.13.05-.09.02-.22-.07-.27s-.21-.02-.27.07h0Z"/>
  </g>
  <g>
    <path class="cls-4" d="m45.09,142.86c2.91,2.53,6.83,3.7,10.65,3.06s6.91-2.92,8.83-6.08c.27-.44-.42-.85-.69-.4-1.77,2.91-4.71,5.01-8.07,5.66-3.6.7-7.4-.42-10.16-2.8-.39-.34-.96.23-.57.57h0Z"/>
    <path class="cls-4" d="m49.47,145.32c-1.61,2.5-3.21,9.27,1.34,9.81s5.89-5.83,5.74-9.23c-.02-.51-.8-.52-.8,0,0,2.32.03,4.91,1.37,6.92,1.1,1.64,3.73,3.29,5.73,2.24s2.38-4.19,2.42-6.14c.05-2.54-.7-5.06-2.13-7.16-.29-.42-.98-.02-.69.4,1.21,1.78,1.92,3.84,2.01,5.99.05,1.07-.05,2.14-.3,3.18-.23.94-.54,2.04-1.27,2.73-.89.83-2.32.46-3.28-.04s-1.66-1.27-2.14-2.2c-.91-1.8-.91-3.94-.91-5.91h-.8c.13,2.85-.62,8.54-4.55,8.45-1.96-.04-2.54-1.94-2.55-3.6,0-1.8.54-3.53,1.51-5.04.28-.44-.41-.84-.69-.4h0Z"/>
    <path class="cls-4" d="m48.46,149.76c.45.15.9.26,1.38.17.39-.07.75-.29,1.04-.55.63-.56.99-1.4,1.12-2.22.07-.42.19-1.06-.14-1.4-.13-.14-.32-.22-.49-.29-.24-.11-.49-.19-.75-.19-1.02,0-1.38,1.22-1.66,1.99-.16.44-.33.89-.44,1.35-.12.5.06.98.58,1.14.96.31,1.64-.72,1.99-1.44.19-.4.34-.82.43-1.25s.15-1-.36-1.2c-.38-.14-.94-.09-1.24.2s-.42.77-.56,1.15c-.18.5-.32,1-.44,1.51-.06.26-.16.56.07.78s.54.12.77-.04c.4-.29.63-.71.8-1.16s.24-.95.46-1.39c.1-.19.05-.43-.14-.55-.18-.1-.45-.05-.55.14-.23.46-.33.95-.49,1.44-.06.19-.14.38-.26.55-.05.07-.1.13-.15.19-.03.03-.06.06-.09.09l-.05.03c-.1.05-.06.05.1.01l.18.1-.02-.03.1.18v-.04c0,.07,0,.14,0,.21.09-.57.27-1.15.46-1.7.09-.26.18-.52.29-.77.1-.2.22-.21.44-.19.04,0,.12.04.04-.02-.06-.05-.04-.05-.06-.02-.01.02,0,.09-.01.12-.01.08-.03.15-.04.23-.06.27-.14.53-.24.79s-.22.48-.36.7c-.12.19-.25.4-.45.52-.1.06-.34.16-.41.02.02.05.02-.05.02-.08.01-.07.03-.14.05-.21.04-.15.09-.3.14-.45.19-.57.38-1.16.66-1.69.09-.16.2-.38.39-.42.22-.05.49.09.68.19.06.03.1.08.05,0-.02-.03,0-.07,0-.02,0,.02,0,.07,0,.1,0,.15,0,.3-.02.45-.03.28-.09.55-.18.82-.16.49-.44.97-.87,1.28-.18.13-.38.23-.6.25-.32.04-.63-.08-.92-.18-.49-.16-.7.61-.21.77h0Z"/>
    <path class="cls-4" d="m63.74,152.66c-.88-.34-1.26-1.27-1.11-2.15s.67-2.01,1.72-2.01c.39,0,.56-.56.2-.75-.7-.37-1.38.04-1.92.49-.58.48-.86,1.15-.98,1.88s-.07,1.49.3,2.14c.31.54.84.97,1.46,1.09.2.04.45-.05.49-.28.21-1.12.7-2.16.98-3.26.06-.26.11-.52.15-.79.04-.28.08-.58-.1-.82-.36-.48-.99-.26-1.39.03-.86.63-1.51,1.71-1.6,2.77-.04.52.06,1.12.36,1.55.16.23.46.34.72.2.23-.13.38-.42.5-.65.27-.51.43-1.06.54-1.62.06-.3.1-.59.14-.89.02-.14.04-.27.06-.41.01-.07.02-.13.03-.2,0-.04.01-.08.02-.12.02-.1.02-.11,0-.03l-.18.1h.04c-.13-.04-.26-.08-.39-.11l.03.02-.06-.49c-.13.23-.37.34-.58.49-.26.19-.48.41-.62.7-.33.66-.27,1.38-.18,2.09.03.2.13.37.35.39.19.02.39-.09.44-.29.17-.68.42-1.32.77-1.92.26-.45-.43-.85-.69-.4-.38.66-.67,1.37-.85,2.11l.79.11c-.08-.59-.19-1.28.15-1.82.28-.45.86-.58,1.13-1.06.08-.14.07-.37-.06-.49-.41-.34-.78.02-.85.44-.06.39-.11.79-.18,1.18s-.14.77-.26,1.15c-.05.17-.11.34-.19.5-.05.1-.1.19-.15.28-.02.04-.15.21-.1.2h.21l-.06-.02.18.1c-.22-.21-.25-.66-.24-.94,0-.35.1-.7.26-1.01s.35-.62.58-.89c.11-.13.24-.25.38-.36.03-.02.38-.2.39-.2-.02,0-.04-.01-.05-.04-.03-.06-.04-.05-.03.03-.03.07-.01.17-.03.24-.03.2-.07.4-.12.6-.09.37-.21.74-.33,1.1-.25.73-.51,1.45-.65,2.21l.49-.28c-.99-.2-1.32-1.27-1.21-2.16.06-.48.19-1.02.53-1.38.25-.26.8-.8,1.2-.59l.2-.75c-1.46,0-2.31,1.39-2.51,2.68-.1.67-.04,1.34.32,1.92.32.53.8.91,1.37,1.13.2.08.44-.09.49-.28.06-.23-.08-.42-.28-.49h0Z"/>
    <path class="cls-4" d="m47.6,159.69c2.32,2.65,5.93,3.38,9.31,3.31,1.6-.03,3.22-.28,4.59-1.16s2.31-2.1,3-3.49c.23-.46-.46-.87-.69-.4-.63,1.27-1.5,2.43-2.71,3.21-1.34.85-2.91,1.04-4.47,1.05-3.1.02-6.34-.65-8.47-3.08-.34-.39-.91.18-.57.57h0Z"/>
    <path class="cls-4" d="m57.06,162.96c.3,2.35,1.88,5.1,4.47,5.39,1.14.13,2.32-.34,2.94-1.33s.72-2.3.49-3.43c-.25-1.24-.94-2.4-1.94-3.18-.4-.31-.97.25-.57.57,1.47,1.15,2.19,3.16,1.62,4.97-.31,1-1.12,1.62-2.18,1.62s-1.9-.58-2.56-1.31c-.81-.9-1.32-2.09-1.48-3.29-.06-.5-.87-.51-.8,0h0Z"/>
    <path class="cls-4" d="m60.07,162.07c-.01.85.26,1.71.77,2.38.13.17.35.27.55.14.16-.11.28-.37.14-.55-.12-.16-.22-.32-.32-.49-.04-.08-.08-.15-.11-.23.03.08-.02-.06-.03-.07-.02-.05-.03-.09-.05-.14-.06-.17-.1-.35-.13-.53,0-.02,0-.05-.01-.07,0,.05,0,.05,0,0,0-.05,0-.1-.01-.15,0-.1,0-.19,0-.29,0-.21-.19-.41-.4-.4s-.4.18-.4.4h0Z"/>
  </g>
  <g>
    <path class="cls-4" d="m304.15,125.57c3.78,3.85,9.22,5.96,14.62,5.43s9.94-3.34,12.99-7.56c.42-.59-.55-1.15-.97-.57-2.87,3.98-7.48,6.67-12.4,7.04s-9.95-1.58-13.44-5.14c-.51-.52-1.3.28-.8.8h0Z"/>
    <path class="cls-4" d="m309.97,129.51c-1.85,2.42-2.94,5.45-2.89,8.51.04,2.54,1.21,4.95,3.92,5.38,6.41,1,8.69-7.59,8.84-12.36.02-.73-1.07-.71-1.13,0-.27,3.35-.51,7.1,1.32,10.09,1.43,2.34,4.97,4.77,7.77,3.39s3.62-5.57,3.89-8.28c.35-3.56-.44-7.16-2.21-10.26-.36-.63-1.33-.06-.97.57,1.5,2.62,2.23,5.6,2.13,8.62-.09,2.53-.73,6.32-2.84,8.02-1.27,1.02-3.07.49-4.35-.24s-2.31-1.9-2.92-3.27c-1.19-2.67-.93-5.79-.69-8.63h-1.13c-.13,4.01-1.8,11.69-7.2,11.29-2.75-.2-3.43-2.85-3.28-5.19.16-2.58,1.15-5.01,2.71-7.06.44-.58-.54-1.14-.97-.57h0Z"/>
    <path class="cls-4" d="m307.98,135.53c.59.25,1.2.51,1.86.45.58-.05,1.12-.26,1.58-.61.97-.72,1.59-1.81,1.88-2.97.08-.32.13-.64.17-.96s.07-.68-.11-.98c-.15-.25-.42-.4-.67-.54-.3-.17-.62-.31-.97-.36-1.43-.22-2.11,1.34-2.59,2.41-.27.6-.55,1.2-.78,1.82-.12.33-.23.69-.14,1.04.08.32.33.6.62.75,1.33.68,2.46-.71,3.06-1.71.32-.53.57-1.11.75-1.7s.34-1.34-.31-1.72c-.25-.14-.58-.17-.86-.18-.36-.01-.72.09-.99.33-.45.38-.67,1.06-.9,1.58-.3.69-.57,1.39-.79,2.11-.12.38-.25.87.18,1.12.34.19.7.07,1-.13,1.21-.8,1.31-2.27,2.01-3.42.38-.62-.6-1.19-.97-.57s-.54,1.27-.81,1.9c-.11.27-.25.54-.43.77-.08.11-.18.21-.29.29-.04.04-.09.06-.14.1-.04.03-.1.03-.03.03l.28.08-.05-.02.2.2-.03-.04.08.28s-.04.09,0,0c.02-.04.03-.1.04-.14.03-.09.06-.19.09-.28.07-.22.14-.43.22-.65.14-.38.29-.76.45-1.14s.32-.75.53-1.09c.13-.21.32-.19.56-.16.02,0,.1.03.11.02h0c.05,0,.02-.04-.1-.12,0,0,0,.04,0,.05-.07.17-.09.37-.14.55-.11.36-.25.7-.42,1.03s-.38.66-.61.97c-.19.25-.43.55-.74.66-.13.05-.44.11-.47-.08-.02-.14.13-.41.18-.54.07-.18.14-.36.22-.54.33-.76.66-1.55,1.11-2.25.14-.21.32-.48.59-.52.37-.05.64.26.95.37.13.05,0,.04.02-.04-.01.05,0,.12,0,.17,0,.18-.03.36-.06.53-.07.38-.17.76-.32,1.12-.28.68-.73,1.34-1.36,1.74-.27.17-.58.3-.9.31-.41.01-.8-.15-1.18-.31-.28-.12-.6-.08-.77.2-.14.24-.08.65.2.77h0Z"/>
    <path class="cls-4" d="m329.23,141.38c-1.26-.6-1.73-1.91-1.4-3.22s1.18-2.69,2.67-2.57c.59.05.72-.77.28-1.05-.91-.58-1.95-.06-2.72.5-.87.64-1.33,1.52-1.57,2.56s-.23,2.08.22,3.02c.38.8,1.09,1.42,1.94,1.66.29.08.61-.1.69-.39.4-1.51,1.18-2.87,1.69-4.34.12-.34.22-.68.3-1.02.09-.38.21-.83.03-1.19-.38-.77-1.27-.62-1.89-.28-1.29.7-2.38,2.22-2.63,3.66-.13.75-.08,1.6.29,2.28.18.33.53.53.91.43s.63-.53.82-.82c.46-.68.75-1.47.97-2.26.11-.4.21-.8.3-1.21.04-.18.08-.37.13-.55.02-.09.04-.18.06-.27.03-.11.17-.35-.04-.21l-.28.08h.05c-.13-.06-.27-.12-.4-.17l.04.04-.09-.68c-.19.3-.59.43-.88.61-.38.24-.7.55-.93.93-.52.88-.51,1.92-.46,2.91.03.64.91.76,1.11.15.31-.93.74-1.79,1.3-2.6.41-.6-.56-1.16-.97-.57-.61.88-1.08,1.85-1.41,2.87l1.11.15c-.04-.83-.12-1.82.43-2.52.22-.28.54-.42.84-.6.34-.2.63-.43.85-.77.13-.21.08-.51-.09-.68-.23-.23-.55-.26-.83-.08-.24.16-.32.41-.39.68-.13.55-.25,1.1-.38,1.65s-.28,1.09-.5,1.6c-.09.22-.21.44-.33.65-.11.19-.27.52-.46.64l.28-.08h-.09c.09.04.19.06.28.09.04.04.03.02-.02-.06-.03-.07-.05-.15-.07-.22-.03-.11-.06-.23-.08-.34-.03-.24-.03-.48,0-.72.07-.51.28-1,.55-1.44s.58-.81.95-1.15c.16-.15.34-.28.53-.39.11-.07.27-.11.37-.18l.06-.02c.07,0,.06-.01-.01-.06-.09.09-.11.41-.15.58-.06.25-.14.5-.22.74-.16.48-.36.95-.56,1.42-.43,1-.89,1.98-1.17,3.04l.69-.39c-1.35-.38-1.67-1.97-1.4-3.17.15-.69.39-1.4.93-1.88.4-.36,1.2-.99,1.75-.64l.28-1.05c-2-.16-3.31,1.67-3.75,3.4-.23.91-.22,1.83.16,2.69.35.78.98,1.43,1.75,1.8.65.31,1.22-.66.57-.97h0Z"/>
    <path class="cls-4" d="m305.71,149.29c2.93,3.92,7.68,5.39,12.38,5.73,2.37.17,4.8.03,6.94-1.11,1.94-1.03,3.45-2.71,4.57-4.57.37-.62-.6-1.19-.97-.57-1.03,1.71-2.39,3.23-4.17,4.17-1.96,1.04-4.2,1.11-6.37.95-4.26-.3-8.75-1.6-11.41-5.17-.43-.57-1.41-.01-.97.57h0Z"/>
    <path class="cls-4" d="m318.65,155.04c.16,3.26,2.1,7.39,5.68,8,1.63.28,3.3-.24,4.29-1.6s1.22-3.09,1.02-4.66c-.22-1.8-1.05-3.49-2.39-4.72-.53-.49-1.33.31-.8.8,1.93,1.77,2.71,4.75,1.65,7.2-.57,1.33-1.77,2.03-3.2,1.93s-2.57-1-3.39-2.06c-1.07-1.39-1.66-3.13-1.74-4.88-.03-.72-1.16-.73-1.13,0h0Z"/>
    <path class="cls-4" d="m322.95,154.14c-.11,1.19.19,2.42.84,3.42.16.25.51.37.77.2.25-.16.37-.51.2-.77-.15-.23-.28-.46-.38-.71.04.1-.04-.1-.04-.12-.02-.05-.04-.1-.05-.15-.04-.13-.08-.26-.11-.39s-.06-.26-.08-.4c-.03-.17,0,.11,0-.06,0-.07-.01-.14-.02-.21-.02-.27-.01-.54.01-.81.03-.29-.28-.58-.56-.56-.33.01-.53.25-.56.56h0Z"/>
  </g>
  <text class="cls-8" transform="translate(8.49 35.88) rotate(-7.43) scale(.68 1)"><tspan x="0" y="0">C</tspan></text>
  <text class="cls-8" transform="translate(12.09 35.41) rotate(-6.56) scale(.68 1)"><tspan x="0" y="0">o</tspan></text>
  <text class="cls-8" transform="translate(15.55 35.01) rotate(-5.7) scale(.68 1)"><tspan x="0" y="0">o</tspan></text>
  <text class="cls-8" transform="translate(19 34.67) rotate(-4.91) scale(.68 1)"><tspan x="0" y="0">l</tspan></text>
  <text class="cls-8" transform="translate(21.86 34.43) rotate(-4.25) scale(.68 1)"><tspan x="0" y="0"> </tspan></text>
  <text class="cls-8" transform="translate(24.17 34.25) rotate(-3.46) scale(.68 1)"><tspan x="0" y="0">c</tspan></text>
  <text class="cls-8" transform="translate(28.12 34.01) rotate(-2.59) scale(.68 1)"><tspan x="0" y="0">l</tspan></text>
  <text class="cls-8" transform="translate(31.04 33.88) rotate(-1.97) scale(.68 1)"><tspan x="0" y="0">i</tspan></text>
  <text class="cls-8" transform="translate(32.98 33.81) rotate(-1.13) scale(.68 1)"><tspan x="0" y="0">m</tspan></text>
  <text class="cls-8" transform="translate(37.59 33.72) rotate(-.03) scale(.68 1)"><tspan x="0" y="0">b</tspan></text>
  <text class="cls-8" transform="translate(41.58 33.72) rotate(.9) scale(.68 1)"><tspan x="0" y="0">e</tspan></text>
  <text class="cls-8" transform="translate(44.82 33.77) rotate(1.86) scale(.68 1)"><tspan x="0" y="0">r</tspan></text>
  <text class="cls-8" transform="translate(48.95 33.9) rotate(2.9) scale(.68 1)"><tspan x="0" y="0">s</tspan></text>
  <text class="cls-8" transform="translate(52.91 34.11) rotate(3.71) scale(.68 1)"><tspan x="0" y="0"> </tspan></text>
  <text class="cls-8" transform="translate(55.21 34.25) rotate(4.6) scale(.68 1)"><tspan x="0" y="0">n</tspan></text>
  <text class="cls-8" transform="translate(59.75 34.62) rotate(5.6) scale(.68 1)"><tspan x="0" y="0">e</tspan></text>
  <text class="cls-8" transform="translate(62.98 34.93) rotate(6.44) scale(.68 1)"><tspan x="0" y="0">e</tspan></text>
  <text class="cls-8" transform="translate(66.21 35.29) rotate(7.37) scale(.68 1)"><tspan x="0" y="0">d</tspan></text>
  <text class="cls-8" transform="translate(70.18 35.81) rotate(8.19) scale(.68 1)"><tspan x="0" y="0"> </tspan></text>
  <text class="cls-8" transform="translate(72.48 36.14) rotate(8.99) scale(.68 1)"><tspan x="0" y="0">c</tspan></text>
  <text class="cls-8" transform="translate(76.38 36.76) rotate(9.94) scale(.68 1)"><tspan x="0" y="0">o</tspan></text>
  <text class="cls-8" transform="translate(79.79 37.35) rotate(10.82) scale(.68 1)"><tspan x="0" y="0">o</tspan></text>
  <text class="cls-8" transform="translate(83.2 38.01) rotate(11.62) scale(.68 1)"><tspan x="0" y="0">l</tspan></text>
  <text class="cls-8" transform="translate(86.02 38.59) rotate(12.27) scale(.68 1)"><tspan x="0" y="0"> </tspan></text>
  <text class="cls-8" transform="translate(88.3 39.08) rotate(12.97) scale(.68 1)"><tspan x="0" y="0">T</tspan></text>
  <text class="cls-8" transform="translate(90.99 39.7) rotate(13.56) scale(.68 1)"><tspan x="0" y="0">-</tspan></text>
  <text class="cls-8" transform="translate(93.39 40.27) rotate(14.36) scale(.68 1)"><tspan x="0" y="0">s</tspan></text>
  <text class="cls-8" transform="translate(97.23 41.26) rotate(15.32) scale(.68 1)"><tspan x="0" y="0">h</tspan></text>
  <text class="cls-8" transform="translate(100.89 42.27) rotate(16.02) scale(.68 1)"><tspan x="0" y="0">i</tspan></text>
  <text class="cls-8" transform="translate(102.79 42.8) rotate(16.77) scale(.68 1)"><tspan x="0" y="0">r</tspan></text>
  <text class="cls-8" transform="translate(106.81 44.02) rotate(17.66) scale(.68 1)"><tspan x="0" y="0">t</tspan></text>
  <text class="cls-8" transform="translate(109.85 44.99) rotate(18.5) scale(.68 1)"><tspan x="0" y="0">s</tspan></text>
  <text class="cls-7" transform="translate(100.4 158.73) rotate(-59.47)"><tspan x="0" y="0">C</tspan></text>
  <text class="cls-7" transform="translate(101.87 156.23) rotate(-58.5)"><tspan x="0" y="0">r</tspan></text>
  <text class="cls-7" transform="translate(103.58 153.44) rotate(-57.47)"><tspan x="0" y="0">a</tspan></text>
  <text class="cls-7" transform="translate(105.43 150.54) rotate(-56.56)"><tspan x="0" y="0">z</tspan></text>
  <text class="cls-7" transform="translate(106.74 148.55) rotate(-55.72)"><tspan x="0" y="0">y</tspan></text>
  <text class="cls-7" transform="translate(108.4 146.13) rotate(-54.97)"><tspan x="0" y="0"> </tspan></text>
  <text class="cls-7" transform="translate(109.46 144.62) rotate(-54.15)"><tspan x="0" y="0">r</tspan></text>
  <text class="cls-7" transform="translate(111.39 141.94) rotate(-53.19)"><tspan x="0" y="0">o</tspan></text>
  <text class="cls-7" transform="translate(113.05 139.73) rotate(-52.25)"><tspan x="0" y="0">c</tspan></text>
  <text class="cls-7" transform="translate(114.98 137.22) rotate(-51.22)"><tspan x="0" y="0">k</tspan></text>
</svg>