<?xml version="1.0" encoding="UTF-8"?>
<svg id="Layer_1" data-name="Layer 1" xmlns="http://www.w3.org/2000/svg" viewBox="0 0 125.1 43.19">
  <defs>
    <style>
      .cls-1 {
        fill: #010101;
        stroke-width: 0px;
      }
    </style>
  </defs>
  <path class="cls-1" d="m24.19,24.73h-3c-1-1,0-3,0-5,4,0,11,1,9,6h-3c1,3-3,7,0,10h-4c-1-3,0-7,1-11h0Z"/>
  <path class="cls-1" d="m35.19,35.73h-5c0-4-1-9,1-13,0-1-1-1-1-2,4,0,10-2,9,4l-1,1c-1,0-3-2-4-1s0,2,1,2h3v2c-2,0-5-1-5,1s4,0,5,1,1,4,0,5h-3Z"/>
  <path class="cls-1" d="m40.19,21.73c1-2,3,0,4-1,1,5-1,10,0,15h-5c-2-4,1-9,1-14h0Z"/>
  <path class="cls-1" d="m48.19,26.73c-1,3-1,6-1,9h-2v-15c6-2,7,5,7,10,2-4-1-12,5-10,1,5-2,10,0,15-2,0-4,1-6,0-3-3-1-7-3-11v2h0Z"/>
  <path class="cls-1" d="m75.19,31.73c1-5,2-13,9-11,1,5,1,10,3,15-4,1-7-1-6-5l-2-1c-2,2,0,4-1,6h-3v-4h0Zm6-4v-4c-1,1-2,3-2,4s1,1,2,1v-1h0Z"/>
  <path class="cls-1" d="m94.19,33.73v2c-2,0-6,1-6,0-3-5,1-10-1-15h4c1,3-1,7-1,11h4v2h0Z"/>
  <path class="cls-1" d="m100.19,35.73c-8,1-4-8-4-13,0-1-1-1-1-2h9c0,2,1,4-1,5-1,0-2-2-3-1s0,2,1,2h2v3c-1,0-3-2-4-1v2h4c1,1,1,4,0,5h-3Z"/>
  <path class="cls-1" d="m108.19,26.73c-1,3-1,6-1,9-1,0-3,0-3-1,0-5,2-9,1-14,7-2,5,6,7,10-1-3,3-7,0-10,9-1,2,10,4,15h-5c-4-2-1-7-3-11v2h0Z"/>
  <path class="cls-1" d="m23.69,7.31c-5.2-.78-13.63,2.5-14.38,8.47-.35,2.82,1.06,5.22,2.61,7.45,1.75,2.51,6.82,7.72,1.1,8.08-3.27.2-3.04,5.04.35,4.82,4.86-.3,8.84-3.2,7.29-8.36-.88-2.93-2.75-5.07-4.44-7.56-1.31-1.93-2.4-3.6-.69-5.55s4.66-2.9,7.17-2.53c3.15.47,4.38-4.32,1-4.82h0Z"/>
  <path class="cls-1" d="m76.8,17.41c-.3-6.63-4.69-15.57-12.6-10.96-6.69,3.9-7.81,17.3-6.22,24.03,1.4,5.91,5.96,10.56,11.95,6.42,2.92-2.02,4.94-5.27,5.09-8.84.2-4.52-1.99-5.08-5.7-6.58-2.88-1.16-5.4,3.24-2.27,4.51,2.2.89,3.35.51,2.61,3.36-.37,1.43-2.64,5.18-4.6,4.18s-2.25-5.92-2.26-7.56c-.03-4.03.2-8.95,1.99-12.68,3.71-7.75,6.62.93,6.79,4.76.15,3.2,5.35,2.44,5.21-.63h0Z"/>
</svg>