<svg width="59" height="38" viewBox="0 0 59 38" fill="none" xmlns="http://www.w3.org/2000/svg">
<g clip-path="url(#clip0_8_431)">
<path d="M53.7163 0H5.28373C5.08202 0 4.87994 0 4.67859 0.00118341C4.50838 0.00240268 4.33857 0.0043033 4.16875 0.00896522C3.7984 0.0190421 3.42488 0.0410248 3.05916 0.107152C2.6876 0.174427 2.34184 0.284161 2.00453 0.456939C1.67293 0.626597 1.36934 0.848504 1.10625 1.1133C0.843039 1.3781 0.622468 1.68302 0.453867 2.01699C0.282094 2.35635 0.172949 2.7043 0.106542 3.0784C0.0404597 3.44644 0.0184632 3.82216 0.00848259 4.19436C0.00392003 4.3652 0.00196311 4.53604 0.000854555 4.70685C-0.000321731 4.90985 7.03646e-05 5.11272 7.03646e-05 5.31609V32.6843C7.03646e-05 32.8877 -0.000321731 33.0902 0.000854555 33.2936C0.00196311 33.4644 0.00392003 33.6352 0.00848259 33.8061C0.0184632 34.1779 0.0404597 34.5537 0.106542 34.9216C0.172949 35.2958 0.282094 35.6437 0.453867 35.983C0.622468 36.317 0.843039 36.6223 1.10625 36.8867C1.36934 37.152 1.67293 37.3738 2.00453 37.5431C2.34184 37.7163 2.6876 37.8261 3.05916 37.8933C3.42488 37.959 3.7984 37.9814 4.16875 37.9915C4.33857 37.9953 4.50838 37.9976 4.67859 37.9984C4.87994 38 5.08202 38 5.28373 38H53.7163C53.9177 38 54.1198 38 54.3211 37.9984C54.4909 37.9976 54.6607 37.9953 54.8313 37.9915C55.2009 37.9814 55.5743 37.959 55.941 37.8933C56.312 37.8261 56.6578 37.7163 56.9952 37.5431C57.3271 37.3738 57.6298 37.152 57.8935 36.8867C58.1563 36.6223 58.3768 36.317 58.5459 35.983C58.718 35.6437 58.8271 35.2958 58.8931 34.9216C58.9593 34.5537 58.9807 34.1779 58.9907 33.8061C58.9954 33.6352 58.9977 33.4644 58.9984 33.2936C59 33.0902 59 32.8877 59 32.6843V5.31609C59 5.11272 59 4.90985 58.9984 4.70685C58.9977 4.53604 58.9954 4.3652 58.9907 4.19436C58.9807 3.82216 58.9593 3.44644 58.8931 3.0784C58.8271 2.7043 58.718 2.35635 58.5459 2.01699C58.3768 1.68302 58.1563 1.3781 57.8935 1.1133C57.6298 0.848504 57.3271 0.626597 56.9952 0.456939C56.6578 0.284161 56.312 0.174427 55.941 0.107152C55.5743 0.0410248 55.2009 0.0190421 54.8313 0.00896522C54.6607 0.0043033 54.4909 0.00240268 54.3211 0.00118341C54.1198 0 53.9177 0 53.7163 0Z" fill="black"/>
<path d="M53.7163 1.2666L54.3121 1.26775C54.4735 1.2689 54.6349 1.27065 54.7972 1.2751C55.0796 1.28277 55.4098 1.29816 55.7176 1.35367C55.9852 1.40216 56.2096 1.47589 56.425 1.58619C56.6376 1.69489 56.8324 1.83733 57.0025 2.0082C57.1733 2.18023 57.315 2.37653 57.4245 2.59281C57.5335 2.80779 57.6063 3.0325 57.6543 3.30368C57.7093 3.61 57.7245 3.94315 57.7323 4.22892C57.7366 4.39023 57.7387 4.55153 57.7395 4.71667C57.7411 4.91638 57.741 5.11598 57.741 5.31608V32.6843C57.741 32.8844 57.7411 33.0837 57.7395 33.2876C57.7387 33.4489 57.7366 33.6102 57.7322 33.7718C57.7245 34.0571 57.7093 34.3901 57.6536 34.7C57.6063 34.9675 57.5336 35.1922 57.4239 35.4083C57.3148 35.624 57.1732 35.8201 57.0032 35.9911C56.8322 36.1632 56.638 36.3052 56.4229 36.4149C56.2091 36.5247 55.9851 36.5983 55.7201 36.6463C55.4061 36.7026 55.062 36.7181 54.8028 36.7252C54.6398 36.7289 54.4775 36.7311 54.3113 36.7319C54.1132 36.7334 53.9145 36.7334 53.7163 36.7334H5.28372C5.28109 36.7334 5.27852 36.7334 5.27585 36.7334C5.08001 36.7334 4.88379 36.7334 4.68439 36.7318C4.52181 36.7311 4.35959 36.7289 4.20275 36.7253C3.9377 36.7181 3.5934 36.7027 3.2819 36.6467C3.01467 36.5983 2.79064 36.5247 2.57406 36.4135C2.36094 36.3047 2.16692 36.1629 1.99579 35.9904C1.82598 35.8199 1.68486 35.6244 1.57575 35.4083C1.46654 35.1925 1.39346 34.9671 1.34542 34.6964C1.28988 34.3871 1.27462 34.0554 1.267 33.772C1.26265 33.6098 1.26083 33.4475 1.25979 33.2862L1.25901 32.81L1.25905 32.6843V5.31608L1.25901 5.19035L1.25976 4.71516C1.26083 4.55289 1.26265 4.39066 1.267 4.22853C1.27462 3.94483 1.28988 3.61305 1.34588 3.30113C1.3935 3.03293 1.46654 2.80751 1.57632 2.59058C1.68458 2.37617 1.82594 2.18044 1.99665 2.00874C2.16668 1.83761 2.36133 1.69535 2.57581 1.58562C2.79007 1.47585 3.01453 1.40216 3.28176 1.35378C3.58966 1.29812 3.92012 1.28277 4.20315 1.27506C4.36448 1.27065 4.5258 1.2689 4.68592 1.26778L5.28372 1.2666H53.7163Z" fill="white"/>
<path d="M16.1066 12.7809C16.6118 12.1452 16.9546 11.2917 16.8642 10.4194C16.1247 10.4564 15.2223 10.9103 14.6998 11.5465C14.2307 12.0913 13.8155 12.9805 13.9237 13.8162C14.7539 13.8886 15.5832 13.3987 16.1066 12.7809Z" fill="black"/>
<path d="M16.8548 13.9794C15.6492 13.9072 14.6242 14.6678 14.0485 14.6678C13.4724 14.6678 12.5908 14.0159 11.6373 14.0334C10.3962 14.0518 9.24466 14.7577 8.61486 15.8805C7.31949 18.1267 8.27301 21.4586 9.5327 23.288C10.1444 24.193 10.8817 25.1896 11.8531 25.1538C12.7709 25.1175 13.1307 24.5559 14.2464 24.5559C15.3612 24.5559 15.6853 25.1538 16.6569 25.1357C17.6644 25.1175 18.2943 24.2302 18.9061 23.3242C19.6078 22.2925 19.8951 21.2963 19.9132 21.2416C19.8951 21.2235 17.9703 20.4806 17.9525 18.2531C17.9343 16.388 19.4636 15.5008 19.5356 15.4458C18.672 14.1608 17.3226 14.0159 16.8548 13.9794Z" fill="black"/>
<path d="M27.3518 11.4551C29.972 11.4551 31.7966 13.2722 31.7966 15.9177C31.7966 18.5727 29.9345 20.3993 27.2861 20.3993H24.385V25.0408H22.2889V11.4551H27.3518V11.4551ZM24.385 18.6292H26.79C28.615 18.6292 29.6536 17.6408 29.6536 15.9272C29.6536 14.2138 28.615 13.2346 26.7994 13.2346H24.385V18.6292Z" fill="black"/>
<path d="M32.3443 22.2259C32.3443 20.4934 33.6638 19.4296 36.0035 19.2978L38.6985 19.1378V18.3752C38.6985 17.2737 37.9591 16.6146 36.7241 16.6146C35.5541 16.6146 34.8241 17.1794 34.6465 18.0645H32.7374C32.8497 16.2756 34.3656 14.9575 36.7988 14.9575C39.1852 14.9575 40.7104 16.2285 40.7104 18.2151V25.0409H38.7732V23.4121H38.7267C38.1559 24.5137 36.9111 25.2103 35.6198 25.2103C33.6919 25.2103 32.3443 24.0052 32.3443 22.2259ZM38.6985 21.3315V20.5501L36.2746 20.7007C35.0674 20.7855 34.3844 21.3221 34.3844 22.1694C34.3844 23.0355 35.0956 23.6004 36.1811 23.6004C37.5942 23.6004 38.6985 22.6213 38.6985 21.3315Z" fill="black"/>
<path d="M42.5393 28.6844V27.0367C42.6888 27.0743 43.0256 27.0743 43.1942 27.0743C44.13 27.0743 44.6354 26.679 44.9441 25.6622C44.9441 25.6433 45.1221 25.0596 45.1221 25.0502L41.566 15.1362H43.7556L46.2452 23.1955H46.2824L48.7719 15.1362H50.9055L47.2181 25.5585C46.3762 27.9594 45.4029 28.7314 43.3628 28.7314C43.1942 28.7314 42.6888 28.7125 42.5393 28.6844Z" fill="black"/>
</g>
<defs>
<clipPath id="clip0_8_431">
<rect width="59" height="38" fill="white"/>
</clipPath>
</defs>
</svg>
